<svg width="80" height="80" viewBox="0 0 80 80" fill="none" xmlns="http://www.w3.org/2000/svg">
<g clip-path="url(#clip0_111_51)">
<rect width="80" height="80" fill="black"/>
<rect x="40" y="89.6875" width="111.562" height="40" transform="rotate(-90 40 89.6875)" fill="#00FF66"/>
<rect y="95.3125" width="41.7188" height="40" transform="rotate(-90 0 95.3125)" fill="#FF3D00"/>
<path d="M21.9902 19.4406V65.3844H8.80005V19.4406H21.9902Z" fill="black" fill-opacity="0.3"/>
<path d="M73.6001 36.6695H60.2202C60.1253 35.6226 59.8722 34.673 59.461 33.8205C59.0656 32.968 58.5121 32.2352 57.8004 31.622C57.1045 30.9939 56.2584 30.5153 55.262 30.1863C54.2656 29.8423 53.1348 29.6703 51.8696 29.6703C49.6554 29.6703 47.7813 30.1788 46.2472 31.1958C44.7289 32.2128 43.5744 33.6709 42.7836 35.5703C42.0086 37.4697 41.6211 39.7504 41.6211 42.4125C41.6211 45.2242 42.0165 47.5797 42.8073 49.479C43.6139 51.3634 44.7763 52.7842 46.2946 53.7414C47.8129 54.6836 49.6396 55.1547 51.7747 55.1547C52.9925 55.1547 54.0837 55.0126 55.0485 54.7285C56.0132 54.4294 56.8515 54.0031 57.5632 53.4498C58.2748 52.8964 58.8521 52.2309 59.2949 51.4532C59.7536 50.6605 60.062 49.7707 60.2202 48.7836L73.6001 48.8733C73.4419 50.8176 72.8646 52.7992 71.8683 54.8182C70.8719 56.8223 69.4564 58.6768 67.6218 60.3817C65.803 62.0717 63.5493 63.4327 60.8607 64.4646C58.172 65.4965 55.0485 66.0125 51.49 66.0125C47.03 66.0125 43.0287 65.1077 39.486 63.298C35.9592 61.4884 33.1678 58.8263 31.1117 55.3117C29.0715 51.7972 28.0515 47.4974 28.0515 42.4125C28.0515 37.2977 29.0953 32.9904 31.1829 29.4908C33.2706 25.9763 36.0857 23.3216 39.6284 21.5269C43.1711 19.7173 47.1249 18.8125 51.49 18.8125C54.5582 18.8125 57.3813 19.2088 59.9592 20.0015C62.5371 20.7941 64.7987 21.9532 66.744 23.4787C68.6893 24.9892 70.2551 26.8512 71.4412 29.0646C72.6274 31.278 73.347 33.813 73.6001 36.6695Z" fill="black" fill-opacity="0.3"/>
<path d="M21.9902 14.7531V60.6969H8.80005V14.7531H21.9902Z" fill="white"/>
<path d="M73.6001 31.982H60.2202C60.1253 30.9351 59.8722 29.9855 59.461 29.133C59.0656 28.2805 58.5121 27.5477 57.8004 26.9345C57.1045 26.3064 56.2584 25.8278 55.262 25.4988C54.2656 25.1548 53.1348 24.9828 51.8696 24.9828C49.6554 24.9828 47.7813 25.4913 46.2472 26.5083C44.7289 27.5253 43.5744 28.9834 42.7836 30.8828C42.0086 32.7822 41.6211 35.0629 41.6211 37.725C41.6211 40.5367 42.0165 42.8922 42.8073 44.7915C43.6139 46.6759 44.7763 48.0967 46.2946 49.0539C47.8129 49.9961 49.6396 50.4672 51.7747 50.4672C52.9925 50.4672 54.0837 50.3251 55.0485 50.041C56.0132 49.7419 56.8515 49.3156 57.5632 48.7623C58.2748 48.2089 58.8521 47.5434 59.2949 46.7657C59.7536 45.973 60.062 45.0832 60.2202 44.0961L73.6001 44.1858C73.4419 46.1301 72.8646 48.1117 71.8683 50.1307C70.8719 52.1348 69.4564 53.9893 67.6218 55.6942C65.803 57.3842 63.5493 58.7452 60.8607 59.7771C58.172 60.809 55.0485 61.325 51.49 61.325C47.03 61.325 43.0287 60.4202 39.486 58.6105C35.9592 56.8009 33.1678 54.1388 31.1117 50.6242C29.0715 47.1097 28.0515 42.8099 28.0515 37.725C28.0515 32.6102 29.0953 28.3029 31.1829 24.8033C33.2706 21.2888 36.0857 18.6341 39.6284 16.8394C43.1711 15.0298 47.1249 14.125 51.49 14.125C54.5582 14.125 57.3813 14.5213 59.9592 15.314C62.5371 16.1066 64.7987 17.2657 66.744 18.7912C68.6893 20.3017 70.2551 22.1637 71.4412 24.3771C72.6274 26.5905 73.347 29.1255 73.6001 31.982Z" fill="white"/>
</g>
<defs>
<clipPath id="clip0_111_51">
<rect width="80" height="80" fill="white"/>
</clipPath>
</defs>
</svg>
