<svg width="100" height="100" viewBox="0 0 100 100" fill="none" xmlns="http://www.w3.org/2000/svg">
<g clip-path="url(#clip0_102_27)">
<rect width="100" height="100" fill="black"/>
<rect x="10" y="105" width="9" height="20" transform="rotate(-90 10 105)" fill="#FF0F00"/>
<rect x="30" y="109" width="23" height="20" transform="rotate(-90 30 109)" fill="#00FF66"/>
<rect x="50" y="105" width="12" height="20" transform="rotate(-90 50 105)" fill="#FF0F00"/>
<rect x="70" y="111" width="124" height="20" transform="rotate(-90 70 111)" fill="#00FF66"/>
<path d="M27.4876 20.7852V78.2148H11V20.7852H27.4876Z" fill="white"/>
<path d="M92 42.3213H75.2751C75.1565 41.0127 74.8402 39.8256 74.3262 38.76C73.832 37.6944 73.14 36.7784 72.2504 36.0119C71.3806 35.2267 70.3229 34.6285 69.0774 34.2172C67.832 33.7872 66.4185 33.5722 64.8369 33.5722C62.0692 33.5722 59.7265 34.2079 57.8089 35.4791C55.911 36.7503 54.4679 38.573 53.4794 40.9472C52.5107 43.3215 52.0264 46.1724 52.0264 49.5C52.0264 53.0146 52.5206 55.959 53.5091 58.3332C54.5173 60.6887 55.9703 62.4647 57.8682 63.6611C59.7661 64.8389 62.0494 65.4278 64.7183 65.4278C66.2405 65.4278 67.6046 65.2502 68.8105 64.895C70.0165 64.5211 71.0642 63.9883 71.9539 63.2966C72.8435 62.6049 73.5651 61.773 74.1186 60.8009C74.6919 59.81 75.0774 58.6977 75.2751 57.4639L92 57.576C91.8023 60.0063 91.0807 62.4834 89.8352 65.0071C88.5898 67.5122 86.8204 69.8303 84.5272 71.9615C82.2537 74.074 79.4366 75.7752 76.0758 77.0651C72.715 78.355 68.8105 79 64.3624 79C58.7875 79 53.7858 77.869 49.3575 75.6069C44.9489 73.3449 41.4596 70.0173 38.8896 65.6241C36.3394 61.2308 35.0642 55.8562 35.0642 49.5C35.0642 43.1065 36.369 37.7224 38.9786 33.3479C41.5881 28.9547 45.1071 25.6364 49.5354 23.3931C53.9638 21.131 58.9061 20 64.3624 20C68.1977 20 71.7265 20.4954 74.9489 21.4862C78.1713 22.477 80.9983 23.9259 83.43 25.8327C85.8616 27.7209 87.8188 30.0483 89.3015 32.8151C90.7842 35.5819 91.6837 38.7506 92 42.3213Z" fill="white"/>
</g>
<defs>
<clipPath id="clip0_102_27">
<rect width="100" height="100" fill="white"/>
</clipPath>
</defs>
</svg>
