<svg width="80" height="80" viewBox="0 0 80 80" fill="none" xmlns="http://www.w3.org/2000/svg">
<g clip-path="url(#clip0_111_51)">
<rect width="80" height="80" rx="20" fill="white"/>
<rect x="40" y="89.6875" width="111.562" height="40" transform="rotate(-90 40 89.6875)" fill="#0CE97F"/>
<rect y="95.3125" width="41.7188" height="40" transform="rotate(-90 0 95.3125)" fill="#EB1E5C"/>
<path d="M22.0035 22V59C22.0035 63.1659 20.4061 64 16.2906 64C12.1752 64 10.5778 63.1659 10.5778 59V22C10.5778 17.6227 11.9218 16.7273 16.2906 16.7273C20.2645 16.7273 22.0035 17.7461 22.0035 22Z" fill="black"/>
<path d="M66.316 33.8544C64.5 33.8544 61.4539 34.3558 59.599 30.6459C59.1219 29.6919 58.491 28.8763 57.7062 28.1992C56.9214 27.5221 55.9904 27.0066 54.9133 26.6527C53.8515 26.2834 52.6743 26.0987 51.3816 26.0987C49.0888 26.0987 47.1114 26.6604 45.4495 27.7837C43.8029 28.9071 42.5334 30.5305 41.6409 32.6541C40.7637 34.7777 40.3252 37.3475 40.3252 40.3636C40.3252 43.5028 40.7714 46.1342 41.664 48.2578C42.5719 50.366 43.8414 51.9587 45.4726 53.0359C47.1191 54.0977 49.0657 54.6286 51.3124 54.6286C52.5742 54.6286 53.7207 54.467 54.7517 54.1438C55.7981 53.8207 56.7137 53.3513 57.4985 52.7358C58.2987 52.1049 58.9527 51.3432 59.4605 50.4506C64 43 72.9114 48.2578 70.263 53.636C69.2628 55.6673 67.8856 57.5215 66.1313 59.1989C64.377 60.8608 62.2381 62.1842 59.7144 63.169C57.2061 64.1539 54.3285 64.6463 51.0816 64.6463C46.8036 64.6463 42.972 63.7076 39.5865 61.8303C36.2165 59.9375 33.5544 57.183 31.6 53.5668C29.6457 49.9505 28.6686 45.5495 28.6686 40.3636C28.6686 35.1624 29.6611 30.7537 31.6462 27.1374C33.6313 23.5212 36.3165 20.7744 39.702 18.897C43.0874 17.0196 46.8806 16.081 51.0816 16.081C53.9438 16.081 56.5906 16.4811 59.0219 17.2812C61.4533 18.066 63.5922 19.2202 65.4388 20.7436C67.2854 22.2517 68.7858 24.1059 69.9399 26.3065C73.0973 32.3267 67.5 33.8544 66.316 33.8544Z" fill="black"/>
</g>
<defs>
<clipPath id="clip0_111_51">
<rect width="80" height="80" rx="20" fill="white"/>
</clipPath>
</defs>
</svg>
